<?xml version="1.0" encoding="UTF-8"?>
<svg xmlns="http://www.w3.org/2000/svg" version="1.1" viewBox="0 0 72 40">
  <defs>
    <style>
      .cls-1 {
        fill: #fff;
      }
    </style>
  </defs>
  <!-- Generator: Adobe Illustrator 28.6.0, SVG Export Plug-In . SVG Version: 1.2.0 Build 709)  -->
  <g>
    <g id="logo-81">
      <path class="cls-1" d="M72,14.2c0,0,0-.1,0-.2h0s0,0,0-.1l-.5-3.9c0-.5-.3-.9-.6-1.3h0c0-.1-.2-.3-.2-.3L61.4.5l.3.3c-.2-.3-.5-.5-.8-.6-.3-.1-.6-.2-1-.2h-2.8c-.5,0-.9.1-1.3.4-.4-.3-.8-.4-1.3-.4h-2.8c-.4,0-.7,0-1.1.3-.3.2-.6.4-.8.8-.3.5-.4,1-.3,1.5l.4,2.5c-.2-.1-.5-.2-.8-.2h-13.6c-.5,0-1,.1-1.4.4-.4.2-.7.6-.9,1l-1.1-.9c-.4-.4-1-.6-1.5-.6H9.4c-.5,0-1,.1-1.4.4-.6.3-1,.9-1.2,1.5L.1,29.3c-.1.4-.1.8,0,1.2.1.4.3.7.6,1,0,0,.2.1.2.2,0,0-.1,0-.2-.2l9.2,8c.4.4.9.6,1.4.6h21.5c.5,0,1-.2,1.4-.4.2-.1.4-.3.6-.5h0c0-.1.1-.3.1-.3v-.2c0,0,1.1.9,1.1.9.4.3.9.5,1.4.5h21.5c.5,0,1-.2,1.4-.4.2-.1.4-.3.6-.5h0c0-.1.1-.3.1-.3,0,0,.1-.2.2-.3,0,0,0-.2.1-.3h0l6.2-20.6v-.2c0,0,0-.1,0-.2h0c0-.2,0-.2,0-.3,0,0,0-.2,0-.3h2c.2,0,.3,0,.5,0h.1c.1,0,.2,0,.3-.1h.2l.3-.2h.1c0,0,.2-.4.2-.4h0c0,0,.2-.3.2-.3,0,0,0-.1,0-.2,0,0,0,0,0,0h0c0,0,0-.2,0-.3h0s0,0,0,0c0,0,0,0,0-.1,0,0,.3-.6.3-.6Z"/>
      <path d="M31.4,6.5c0,0,.1.2.2.3,0,.1,0,.2,0,.3l-6.8,22.6c0,.2-.3.5-.5.6-.2.1-.4.2-.6.2H2.2c-.2,0-.4,0-.5-.2,0,0-.1-.2-.2-.3,0-.1,0-.2,0-.3L8.3,7.1c0-.2.2-.5.5-.6.2-.1.4-.2.6-.2h21.5c.2,0,.4,0,.5.2h0ZM20.2,25.1l4-13.5h-11.3l-4,13.5h11.3M51.8,6.7c0,0,.2.2.3.2.1,0,.2,0,.3,0h2.8c.1,0,.2,0,.3,0,0,0,.2-.1.2-.2,0,0,0-.1.1-.2,0,0,0-.2,0-.3l-.5-4c0-.2-.1-.4-.3-.5,0,0-.2-.2-.3-.2s-.2,0-.3,0h-2.8c-.1,0-.2,0-.3,0s-.2.1-.2.2c-.1.2-.2.3-.1.5l.6,4c0,.2.1.4.3.5h0ZM60.7,2.2c0-.2-.1-.4-.3-.5,0,0-.2-.2-.3-.2-.1,0-.2,0-.3,0h-2.8c-.1,0-.2,0-.3,0,0,0-.2.1-.2.2-.1.1-.1.3-.1.5l.6,4c0,.2.1.4.3.5,0,0,.2.1.3.2s.2,0,.3,0h2.8c.1,0,.2,0,.3,0,0,0,.2-.1.2-.2,0,0,0-.1.1-.2,0,0,0-.2,0-.3l-.5-4ZM49.4,8.2l-.3-2h-13.5c-.2,0-.4,0-.6.2-.1,0-.2.1-.3.2,0,.1-.1.2-.2.3l-1.1,3.8c0,0,0,.2,0,.3,0,.1,0,.2.1.3.1.1.3.2.5.2h16.4l-4,13.5h-16.4c-.2,0-.4,0-.6.2-.2.1-.4.3-.4.6l-1.1,3.8c0,0,0,.2,0,.3,0,.1,0,.2.1.3.1.1.3.2.5.2h21.5c.2,0,.4,0,.6-.2.2-.1.4-.3.5-.6l6.2-20.6h-7c-.1,0-.2,0-.3,0s-.2-.1-.3-.2c-.1-.1-.2-.3-.3-.5h0Z"/>
    </g>
  </g>
</svg>