<svg width="200" height="49" viewBox="0 0 200 49" fill="none" xmlns="http://www.w3.org/2000/svg">
<g id="logo">
<g id="Spottley">
<path d="M67.2699 35.0913C60.5366 35.0913 57.0033 31.9445 56.1699 27.9363L62.3366 26.3463C62.7366 28.4663 64.2699 30.4207 67.3366 30.4207C70.1366 30.4207 71.2366 29.3276 71.2366 27.9032C71.2366 26.6776 70.3699 25.7832 68.0699 25.4851L65.1699 25.1207C60.0366 24.4582 57.3366 22.3713 57.3366 18.032C57.3366 14.0238 60.9366 10.7776 67.2033 10.7776C73.3033 10.7776 76.6699 13.5601 77.6033 17.1376L71.4699 18.6945C70.9033 16.8395 69.5366 15.4151 67.0699 15.4151C64.6366 15.4151 63.7033 16.5413 63.7033 17.8001C63.7033 19.0257 64.6699 19.7545 66.4366 19.9863L69.3699 20.3507C74.5366 20.9801 77.8366 23.3982 77.8366 27.6051C77.8366 31.8782 74.3366 35.0913 67.2699 35.0913Z" fill="#9B9B9B"/>
<path d="M86.1035 40.9876H80.3035V17.8995H85.6368C85.6035 19.2245 85.0368 20.2513 84.3702 21.2451H86.6368C87.4368 19.3901 88.7702 17.3695 91.9702 17.3695C95.9368 17.3695 98.5702 20.947 98.5702 26.2138C98.5702 31.5138 95.8702 35.0582 91.9702 35.0582C88.8035 35.0582 87.4035 33.0376 86.7035 31.1495H84.4368C85.2702 32.4745 86.1035 34.0645 86.1035 37.4101V40.9876ZM89.2368 31.017C91.1035 31.017 92.5035 29.692 92.5035 26.2138C92.5035 22.7026 91.1035 21.4107 89.2368 21.4107C87.2702 21.4107 85.9368 22.9345 85.9368 26.2138C85.9368 29.4601 87.2368 31.017 89.2368 31.017Z" fill="#9B9B9B"/>
<path d="M109.161 35.0913C103.661 35.0913 99.8941 31.4807 99.8941 26.2138C99.8941 20.8476 103.661 17.3695 109.161 17.3695C114.694 17.3695 118.494 20.8476 118.494 26.2138C118.494 31.6463 114.694 35.0913 109.161 35.0913ZM109.161 30.9176C111.094 30.9176 112.361 29.4601 112.361 26.247C112.361 23.0338 111.094 21.5432 109.161 21.5432C107.261 21.5432 106.027 23.0338 106.027 26.247C106.027 29.4601 107.261 30.9176 109.161 30.9176Z" fill="#9B9B9B"/>
<path d="M132.874 34.5282H127.007C123.974 34.5282 122.307 32.7063 122.307 29.7582V21.9407H118.941V17.8995H122.307V12.7982H128.074V17.8995H132.074V21.9407H128.074V28.8638C128.074 29.7251 128.474 30.1557 129.374 30.1557H132.874V34.5282Z" fill="#9B9B9B"/>
<path d="M147.084 34.5282H141.217C138.184 34.5282 136.517 32.7063 136.517 29.7582V21.9407H133.15V17.8995H136.517V12.7982H142.284V17.8995H146.284V21.9407H142.284V28.8638C142.284 29.7251 142.684 30.1557 143.584 30.1557H147.084V34.5282Z" fill="#9B9B9B"/>
<path d="M154.758 34.5282H148.958V11.3407H154.758V34.5282Z" fill="#9B9B9B"/>
<path d="M165.893 35.0913C160.426 35.0913 157.026 31.7126 157.026 26.1476C157.026 20.947 160.726 17.3695 165.86 17.3695C171.926 17.3695 174.993 21.6426 174.426 27.4395H162.793C162.86 29.9901 164.126 31.0501 165.893 31.0501C167.726 31.0501 168.66 29.8907 169.26 28.4663L174.56 30.1557C173.46 32.6401 171.06 35.0913 165.893 35.0913ZM162.926 24.127H168.76C168.66 22.272 167.593 21.1788 165.893 21.1788C164.226 21.1788 163.16 22.1726 162.926 24.127Z" fill="#9B9B9B"/>
<path d="M186.302 22.8351L187.902 17.8995H193.635L187.002 36.317C185.869 39.4638 184.369 40.9876 180.835 40.9876H175.635V36.6151H180.202C181.269 36.6151 181.702 36.2176 182.102 34.9588L182.335 34.2301L174.035 17.8995H180.302L182.535 23.1332C183.502 25.3526 183.635 27.6382 183.602 30.3545H185.569C185.535 27.1745 185.635 25.0545 186.302 22.8351Z" fill="#9B9B9B"/>
</g>
<path id="Vector" d="M33.4066 14.2738L38.6255 10.3179C39.4872 9.66165 39.5965 8.40435 38.8682 7.59477C35.0511 3.33222 29.7291 -0.163694 24.5466 0.0693665H15.3164C9.36924 0.0693665 4.2717 3.15435 1.68045 8.32462C-0.910799 13.4949 -0.486004 19.7323 2.82133 25.0069L7.17851 31.9742C7.68827 32.7837 7.49408 33.8509 6.72944 34.4274L1.29207 38.5489C0.509231 39.1438 0.315039 40.2601 0.885478 41.0697C4.01682 45.5162 10.3948 48.8465 15.5895 48.6319H24.8196C30.7668 48.6319 35.8643 45.5469 38.4556 40.3766C41.0468 35.2063 40.622 28.9689 37.3147 23.6944L32.9575 16.7271C32.4478 15.9175 32.6419 14.8503 33.4066 14.2738ZM28.6914 28.6868C29.9718 30.7291 30.1296 33.0536 29.1283 35.0591C28.127 37.0647 26.2275 38.2116 23.9215 38.2116H14.6913C12.3853 38.2116 10.2917 37.0647 8.93838 35.0591C8.92017 35.0346 8.90197 35.0101 8.88983 34.9855C8.36187 34.1821 8.57427 33.1027 9.3389 32.5261L14.7338 28.4353C15.4924 27.8588 15.6866 26.7916 15.1829 25.982L11.4507 20.0206C10.1703 17.9782 10.0125 15.6538 11.0138 13.6482C12.0151 11.6427 13.9146 10.4958 16.2206 10.4958H25.4508C27.7568 10.4958 29.8504 11.6427 31.2037 13.6482C31.2219 13.6728 31.2401 13.6973 31.2523 13.7218C31.7802 14.5253 31.5678 15.6047 30.8032 16.1812L25.4083 20.2721C24.6497 20.8486 24.4555 21.9157 24.9592 22.7253L28.6914 28.6868Z" fill="#9B9B9B"/>
</g>
</svg>
